<?xml version="1.0" encoding="utf-8"?>
<!-- Generator: Adobe Illustrator 15.1.0, SVG Export Plug-In  -->
<!DOCTYPE svg PUBLIC "-//W3C//DTD SVG 1.1//EN" "http://www.w3.org/Graphics/SVG/1.1/DTD/svg11.dtd" [
	<!ENTITY ns_flows "http://ns.adobe.com/Flows/1.0/">
]>
<svg version="1.1"
	 xmlns="http://www.w3.org/2000/svg" xmlns:xlink="http://www.w3.org/1999/xlink" xmlns:a="http://ns.adobe.com/AdobeSVGViewerExtensions/3.0/"
	 x="0px" y="0px" width="40px" height="30px" viewBox="-2.163 -0.717 40 30" enable-background="new -2.163 -0.717 40 30"
	 xml:space="preserve">
<defs>
</defs>
<path fill="#9E9D9D" d="M30.583,27.968H5.835C2.617,27.968,0,25.35,0,22.133V5.835C0,2.617,2.617,0,5.835,0h24.748
	c3.218,0,5.835,2.617,5.835,5.835v16.298C36.418,25.35,33.801,27.968,30.583,27.968 M5.835,2.012c-2.107,0-3.823,1.715-3.823,3.823
	v16.298c0,2.107,1.716,3.823,3.823,3.823h24.748c2.107,0,3.823-1.716,3.823-3.823V5.835c0-2.108-1.716-3.823-3.823-3.823H5.835z"/>
<polygon fill="#9E9D9D" points="18.626,15.636 5.044,5.847 6.222,4.213 18.598,13.135 30.379,4.228 31.593,5.832 "/>
<rect x="7.947" y="9.053" transform="matrix(0.8885 0.4588 -0.4588 0.8885 8.476 -2.2911)" fill="#9E9D9D" width="2.011" height="14.489"/>
<rect x="21.373" y="14.99" transform="matrix(0.3661 0.9306 -0.9306 0.3661 32.613 -15.8864)" fill="#9E9D9D" width="13.189" height="2.012"/>
</svg>
