<?xml version="1.0" encoding="utf-8"?>
<!-- Generator: Adobe Illustrator 15.1.0, SVG Export Plug-In  -->
<!DOCTYPE svg PUBLIC "-//W3C//DTD SVG 1.1//EN" "http://www.w3.org/Graphics/SVG/1.1/DTD/svg11.dtd" [
	<!ENTITY ns_flows "http://ns.adobe.com/Flows/1.0/">
]>
<svg version="1.1"
	 xmlns="http://www.w3.org/2000/svg" xmlns:xlink="http://www.w3.org/1999/xlink" xmlns:a="http://ns.adobe.com/AdobeSVGViewerExtensions/3.0/"
	 x="0px" y="0px" width="30px" height="30px" viewBox="-0.478 -3.264 30 30" enable-background="new -0.478 -3.264 30 30"
	 xml:space="preserve">
<defs>
</defs>
<path fill-rule="evenodd" clip-rule="evenodd" fill="#9E9D9D" d="M29.519,2.839c-1.086,0.482-2.254,0.808-3.479,0.955
	c1.25-0.75,2.211-1.938,2.664-3.352c-1.17,0.693-2.467,1.198-3.847,1.471C23.752,0.734,22.179,0,20.437,0
	c-3.345,0-6.056,2.712-6.056,6.056c0,0.475,0.053,0.938,0.157,1.38C9.504,7.183,5.041,4.771,2.054,1.108
	c-0.521,0.895-0.82,1.935-0.82,3.044c0,2.102,1.07,3.955,2.695,5.041C2.936,9.162,2.003,8.89,1.186,8.437L1.185,8.513
	c0,2.934,2.087,5.381,4.858,5.938C5.535,14.589,5,14.664,4.448,14.664c-0.391,0-0.77-0.038-1.139-0.109
	c0.77,2.406,3.007,4.157,5.657,4.205c-2.073,1.624-4.684,2.593-7.522,2.593c-0.488,0-0.97-0.028-1.444-0.084
	c2.68,1.717,5.863,2.721,9.283,2.721c11.139,0,17.231-9.229,17.231-17.231c0-0.262-0.006-0.523-0.018-0.783
	C27.68,5.121,28.708,4.054,29.519,2.839"/>
</svg>
