<?xml version="1.0" encoding="utf-8"?>
<!-- Generator: Adobe Illustrator 15.1.0, SVG Export Plug-In  -->
<!DOCTYPE svg PUBLIC "-//W3C//DTD SVG 1.1//EN" "http://www.w3.org/Graphics/SVG/1.1/DTD/svg11.dtd" [
	<!ENTITY ns_flows "http://ns.adobe.com/Flows/1.0/">
]>
<svg version="1.1"
	 xmlns="http://www.w3.org/2000/svg" xmlns:xlink="http://www.w3.org/1999/xlink" xmlns:a="http://ns.adobe.com/AdobeSVGViewerExtensions/3.0/"
	 x="0px" y="0px" width="30px" height="30px" viewBox="-2.693 -1.74 30 30" enable-background="new -2.693 -1.74 30 30"
	 xml:space="preserve">
<defs>
</defs>
<path fill-rule="evenodd" clip-rule="evenodd" fill="#9E9D9D" d="M22.549,3.853C20.066,1.368,16.765,0.004,13.251,0
	C6.012,0,0.11,5.892,0.11,13.138c-0.004,2.319,0.605,4.581,1.755,6.567L0,26.514l6.967-1.828c1.922,1.053,4.082,1.604,6.28,1.604
	h0.004c7.249,0,13.146-5.893,13.147-13.143C26.398,9.641,25.035,6.339,22.549,3.853 M13.251,24.074h-0.004
	c-1.962-0.008-3.88-0.529-5.559-1.521l-0.402-0.242l-4.134,1.084l1.108-4.029l-0.259-0.415c-1.098-1.734-1.671-3.746-1.671-5.813
	c0-6.02,4.901-10.915,10.928-10.915c2.922,0,5.66,1.136,7.725,3.202c2.061,2.06,3.193,4.805,3.193,7.723
	C24.176,19.172,19.273,24.074,13.251,24.074"/>
<path fill-rule="evenodd" clip-rule="evenodd" fill="#9E9D9D" d="M19.25,15.891c-0.335-0.163-1.949-0.956-2.247-1.07
	c-0.3-0.107-0.519-0.159-0.744,0.17c-0.218,0.329-0.845,1.066-1.03,1.284c-0.195,0.219-0.389,0.249-0.717,0.083
	c-0.33-0.166-1.389-0.513-2.646-1.631c-0.973-0.868-1.63-1.941-1.821-2.274c-0.193-0.325-0.024-0.505,0.145-0.671
	c0.143-0.146,0.326-0.385,0.492-0.571c0.16-0.194,0.218-0.333,0.322-0.548c0.114-0.221,0.059-0.412-0.024-0.578
	c-0.08-0.163-0.734-1.783-1.008-2.439c-0.273-0.642-0.54-0.552-0.737-0.562c-0.197-0.01-0.415-0.01-0.633-0.01
	c-0.218,0-0.579,0.079-0.876,0.411c-0.305,0.329-1.15,1.123-1.15,2.739c0,1.615,1.174,3.174,1.341,3.393
	c0.162,0.221,2.315,3.541,5.61,4.961c0.783,0.335,1.395,0.539,1.873,0.688c0.787,0.252,1.502,0.215,2.066,0.132
	c0.631-0.095,1.942-0.793,2.219-1.562c0.271-0.765,0.271-1.424,0.188-1.562C19.796,16.136,19.576,16.057,19.25,15.891"/>
</svg>
