<?xml version="1.0" encoding="utf-8"?>
<!-- Generator: Adobe Illustrator 15.1.0, SVG Export Plug-In  -->
<!DOCTYPE svg PUBLIC "-//W3C//DTD SVG 1.1//EN" "http://www.w3.org/Graphics/SVG/1.1/DTD/svg11.dtd" [
	<!ENTITY ns_flows "http://ns.adobe.com/Flows/1.0/">
]>
<svg version="1.1"
	 xmlns="http://www.w3.org/2000/svg" xmlns:xlink="http://www.w3.org/1999/xlink" xmlns:a="http://ns.adobe.com/AdobeSVGViewerExtensions/3.0/"
	 x="0px" y="0px" width="160px" height="75px" viewBox="-2.057 -1.571 160 75" enable-background="new -2.057 -1.571 160 75"
	 xml:space="preserve">
<defs>
</defs>
<path fill="#114F96" d="M86.212,15.4c0.006,0.131,0.015,0.264,0.012,0.398c-0.081,3.116-2.67,5.583-5.789,5.507
	c-3.123-0.076-5.588-2.665-5.507-5.792c0.067-3.115,2.66-5.587,5.782-5.503c1.322,0.029,2.524,0.515,3.47,1.299
	c-1.945-2.429-4.908-4.019-8.26-4.099c-6.018-0.147-11.016,4.609-11.16,10.627C64.609,23.855,69.371,28.858,75.39,29
	c6.023,0.145,11.019-4.612,11.169-10.633C86.583,17.34,86.455,16.349,86.212,15.4"/>
<path fill="#0A7EB0" d="M45.871,21.056c-0.043-0.272,0.035-0.981,0.464-1.528c0.424-0.544,2.759-7.094,7.128-10.888
	c6.392-5.551,11.52-7.23,15.637-7.897c5.381-0.881,8.471-1.105,14.079,0.029c6.443,1.293,12.91,5.108,14.977,6.892
	c2.275,1.964,4.163,3.757,6.899,9.026c2.463,4.737,3.781,12.896,4.331,18.118l-0.493,0.051l-7.078,0.048l-0.535-0.041
	c0.169-3.138-0.276-10.945-1.14-13.987c-0.37-1.301-1.636-4.797-3.065-6.903c-1.567-2.323-3.768-4.699-7.668-7.164
	c-4.427-2.8-9.687-3.248-13.731-3.251c-5.907-0.009-12.853,2.58-18.347,7.939c-4.556,4.456-4.995,7.416-6.202,10.132
	c-0.139,0.325-0.178,1.412-0.183,1.532c-0.02,0.65,0.099,1.508,0.389,2.273c0.324,0.906,0.724,1.719,1.126,2.376
	c0.068,0.106,0.128,0.228,0.172,0.337c0.075,0.201,0.1,0.39-0.013,0.547c-0.113,0.155-0.155,0.062-0.275-0.033
	c-0.081-0.057-2.016-2.014-2.411-2.433c-0.708-0.752-1.699-1.698-2.441-2.626C47.104,23.109,45.97,21.645,45.871,21.056
	 M92.911,7.793c2.962,2.088,5.348,5.181,6.152,6.573c0.784,1.357,2.216,4.646,2.896,7.302c0.571,2.217,1.293,6.177,1.51,9.473
	c0.041,0.753,0.284,1.147,0.601,1.147c0.24,0,1.815,0.028,2.187,0.002c0.893-0.053,0.655-1.611,0.655-1.611
	c-0.322-3.648-1.369-9.801-3.469-13.765c-0.697-1.308-3.075-5.979-7.18-8.886c-0.141-0.101-1.878-1.413-2.852-1.819
	c-0.962-0.411-1.689-0.873-2.145-0.564C90.855,5.939,91.337,6.681,92.911,7.793"/>
<path fill="#231F20" d="M1.908,44.296c1.398,0,2.778-0.057,4.175-0.057c-0.058,0.203-0.058,0.288-0.058,0.454
	c0,0.167,0,0.241,0.058,0.431c-1.115-0.068-2.211-0.189-3.324-0.189c-0.342,0-0.465,0.01-0.775,0.027L1.97,45.103
	c-0.021,1.123-0.04,2.238-0.04,3.373l0.019,0.145c0.123,0.01,0.151,0.01,0.225,0.01c1.192,0,2.382-0.127,3.566-0.127
	c-0.056,0.211-0.072,0.31-0.072,0.492c0,0.149,0.017,0.221,0.072,0.381c-0.795-0.072-1.931-0.119-2.98-0.119
	c-0.259,0-0.525,0.021-0.775,0.021c0,0.544,0,1.097-0.014,1.65c0,1.114,0.072,2.213,0.072,3.325
	c-0.253-0.043-0.337-0.056-0.597-0.056c-0.254,0-0.447,0.013-0.817,0.056c0.017-0.088,0.029-0.145,0.029-0.145
	c0.033-0.251,0.063-0.809,0.074-1.65l0.029-1.646c0-0.179,0.017-0.405,0.017-0.663c0-0.249-0.017-0.559-0.017-0.91l-0.012-1.605
	c0-1.586-0.028-2.717-0.092-3.395C1.086,44.279,1.208,44.296,1.908,44.296"/>
<path fill="#231F20" d="M14.325,50.993c0,1.615,0.012,2.624,0.059,3.26c-0.186-0.055-0.229-0.055-0.386-0.055
	c-0.229,0-0.465,0.012-0.783,0.055c0.051-0.353,0.051-0.704,0.051-1.071c0-0.023,0-0.053,0.015-0.097l-0.065-0.032
	c-0.484,0.873-1.331,1.379-2.331,1.379c-1.501,0-2.392-0.931-2.392-2.51c0-1.104,0.044-2.199,0.044-3.301
	c0-0.845,0-0.906-0.059-1.289c0.254,0.045,0.338,0.057,0.627,0.057c0.224,0,0.354-0.012,0.665-0.057
	c-0.053,0.399-0.067,0.533-0.088,1.049c-0.032,0.898-0.061,1.77-0.061,2.666c0,1.305,0.137,2.618,1.805,2.618
	c1.483,0,1.809-1.358,1.809-2.565l0.02-1.313l-0.02-1.18c-0.02-0.759-0.02-0.858-0.072-1.274c0.282,0.045,0.382,0.057,0.628,0.057
	c0.231,0,0.365-0.012,0.674-0.057C14.363,48.249,14.325,49.29,14.325,50.993"/>
<path fill="#231F20" d="M18.452,47.376c0.227,0,0.313,0,0.527-0.045c0,0.366-0.05,0.74-0.05,1.111c0,0.05,0,0.103,0.014,0.188
	c0.643-0.991,1.304-1.397,2.367-1.397c1.531,0,2.388,0.898,2.388,2.477c0,0.832-0.056,1.659-0.056,2.492
	c0,0.688,0.016,1.371,0.016,2.051c-0.283-0.044-0.389-0.056-0.62-0.056c-0.191,0-0.316,0.012-0.628,0.056
	c0.075-0.779,0.144-2.465,0.144-3.743c0-1.187-0.144-2.536-1.691-2.536c-1.728,0-1.902,1.363-1.919,2.764
	c0,0.662-0.014,1.322-0.014,1.988c0,0.502,0.05,1.023,0.05,1.526c-0.262-0.043-0.359-0.055-0.595-0.055
	c-0.244,0-0.365,0.012-0.642,0.055c0.074-0.668,0.086-0.917,0.101-1.81c0.033-0.742,0.045-1.779,0.045-2.752
	c0-0.783,0-1.573-0.06-2.359C18.093,47.355,18.234,47.376,18.452,47.376"/>
<path fill="#231F20" d="M32.114,52.863c-0.673,0.933-1.173,1.541-2.423,1.541c-1.918,0-3.061-1.319-3.061-3.551
	c0-2.186,1.27-3.653,3.183-3.653c1.01,0,1.737,0.44,2.289,1.421c0-0.466,0.012-0.907,0.012-1.366c0-1.311-0.061-2.63-0.061-3.94
	c0.283,0.045,0.407,0.045,0.64,0.045c0.198,0,0.313,0,0.611-0.045c-0.04,0.533-0.04,0.658-0.074,1.787l-0.048,1.768l-0.027,1.866
	l-0.013,2.03c0,1.084,0.013,2.162,0.029,3.25l0.011,0.238c-0.248-0.044-0.338-0.056-0.542-0.056c-0.141,0-0.248,0.012-0.538,0.056
	L32.114,52.863z M29.961,53.875c1.307,0,2.153-1.268,2.153-3.254c0-1.699-0.786-2.834-1.992-2.834c-1.424,0-2.201,1.061-2.201,3.025
	C27.921,52.146,28.258,53.875,29.961,53.875"/>
<path fill="#231F20" d="M36.723,47.994c0.714-0.471,1.471-0.812,2.349-0.812c1.534,0,2.409,0.846,2.409,2.306
	c0,0.814-0.074,1.637-0.074,2.454c0,1.642,0.074,1.838,0.613,1.838c0.087,0,0.129-0.014,0.278-0.04v0.289
	c-0.384,0.15-0.653,0.225-0.936,0.225c-0.638,0-0.971-0.275-1.041-0.889c-0.623,0.683-1.397,1.06-2.174,1.06
	c-1.305,0-2.076-0.658-2.076-1.802c0-2.516,2.865-1.655,4.25-2.613c0.031-0.223,0.048-0.318,0.048-0.451
	c0-1.082-0.643-1.782-1.657-1.782c-0.8,0-1.498,0.379-1.842,1.037h-0.147V47.994z M39.309,50.853
	c-1.705,0.375-2.038,0.623-2.038,1.564c0,0.828,0.521,1.379,1.327,1.379c0.659,0,1.335-0.401,1.724-1.006
	c0-0.731,0.048-1.446,0.048-2.17C40.01,50.676,39.664,50.765,39.309,50.853"/>
<path fill="#231F20" d="M50.354,48.771h-0.146c-0.312-0.616-1.054-1.09-1.727-1.09c-1.592,0-2.631,1.213-2.631,3.025
	c0,1.865,1.098,3.184,2.689,3.184c0.789,0,1.417-0.273,2.04-0.908l0.123,0.028l-0.048,0.655c-0.656,0.532-1.444,0.787-2.409,0.787
	c-2.263,0-3.685-1.412-3.685-3.66c0-2.16,1.542-3.568,3.875-3.568c0.893,0,1.478,0.152,2.233,0.584L50.354,48.771z"/>
<path fill="#231F20" d="M54.729,44.845c0,0.412-0.331,0.741-0.749,0.741c-0.41,0-0.735-0.329-0.735-0.741
	c0-0.416,0.325-0.748,0.735-0.748C54.397,44.097,54.729,44.429,54.729,44.845 M54.533,52.458c0,0.985,0.019,1.171,0.042,1.796
	c-0.31-0.044-0.442-0.056-0.642-0.056c-0.267,0-0.364,0.012-0.654,0.056c0.077-0.504,0.077-0.588,0.095-1.796l0.028-1.666
	l-0.016-1.647c0-1.139-0.013-1.266-0.072-1.812c0.285,0.022,0.399,0.044,0.619,0.044c0.199,0,0.311,0,0.752-0.044
	c-0.08,0.619-0.093,0.813-0.11,1.856C54.552,50.644,54.533,51.197,54.533,52.458"/>
<path fill="#231F20" d="M61.285,47.181c2.054,0,3.398,1.411,3.398,3.598c0,2.109-1.527,3.608-3.669,3.608
	c-2.087,0-3.455-1.438-3.455-3.637C57.56,48.605,59.049,47.181,61.285,47.181 M58.848,50.928c0,1.767,0.895,2.996,2.197,2.996
	c1.428,0,2.349-1.288,2.349-3.281c0-1.797-0.854-3.004-2.108-3.004c-1.479,0-2.369,1.132-2.428,3.111
	C58.857,50.812,58.848,50.869,58.848,50.928 M61.384,44.383c0.253-0.235,0.565-0.629,0.953-0.629c0.255,0,0.458,0.196,0.458,0.438
	c0,0.223-0.165,0.416-0.531,0.636l-2.281,1.34h-0.517L61.384,44.383z"/>
<path fill="#231F20" d="M68.322,47.376c0.225,0,0.312,0,0.52-0.044c0,0.365-0.043,0.739-0.043,1.11c0,0.05,0,0.103,0.013,0.188
	c0.647-0.991,1.309-1.397,2.368-1.397c1.533,0,2.387,0.898,2.387,2.477c0,0.829-0.051,1.659-0.051,2.492
	c0,0.686,0.013,1.371,0.013,2.051c-0.281-0.044-0.395-0.056-0.623-0.056c-0.181,0-0.317,0.012-0.628,0.056
	c0.075-0.779,0.15-2.465,0.15-3.743c0-1.187-0.15-2.536-1.691-2.536c-1.732,0-1.905,1.363-1.925,2.764
	c0,0.662-0.013,1.32-0.013,1.988c0,0.502,0.043,1.023,0.043,1.527c-0.254-0.044-0.354-0.056-0.591-0.056
	c-0.241,0-0.357,0.012-0.642,0.056c0.073-0.669,0.092-0.917,0.102-1.811c0.036-0.742,0.044-1.779,0.044-2.752
	c0-0.783,0-1.573-0.054-2.358C67.962,47.355,68.101,47.376,68.322,47.376"/>
<path fill="#231F20" d="M89.137,44.351c-0.052,0.041-0.061,0.076-0.061,0.076c-0.187,0.209-0.577,0.736-1.17,1.539l-1.187,1.589
	c-0.657,0.906-1.533,2.122-2.119,3.006l-1.052,1.595l-0.839,1.26l-0.057,0.094l0.057,0.082c0.241,0.018,0.271,0.018,0.527,0.018
	c0.285,0,0.645-0.018,1.065-0.027l1.653-0.047c1.315-0.043,2.513-0.106,3.12-0.185c-0.056,0.185-0.056,0.278-0.056,0.533
	c0,0.194,0,0.248,0.038,0.45c-0.59-0.079-0.705-0.086-2.053-0.086l-1.967-0.02l-2.088,0.02c-1.348,0.007-2.048,0.021-2.057,0.021
	c-0.044,0-0.104,0-0.185,0.009v-0.249c0.782-1.039,1.55-2.074,2.271-3.152l1.095-1.553l1.052-1.512l1.015-1.466l0.907-1.385
	l0.081-0.119c-0.235-0.015-0.264-0.015-0.503-0.015c-1.776,0-3.542,0.015-5.316,0.153c0.049-0.231,0.049-0.329,0.049-0.502
	c0-0.149,0-0.22-0.049-0.42h0.181l1.55,0.092c0.878,0.052,2.2,0.061,3.493,0.061c0.873,0,1.726,0,2.602-0.077V44.351z"/>
<path fill="#231F20" d="M92.356,47.917c0.728-0.477,1.494-0.828,2.381-0.828c1.535,0,2.421,0.862,2.421,2.329
	c0,0.825-0.068,1.655-0.068,2.479c0,1.662,0.068,1.861,0.614,1.861c0.092,0,0.134-0.016,0.286-0.048v0.304
	c-0.389,0.148-0.661,0.233-0.946,0.233c-0.645,0-0.977-0.296-1.052-0.908c-0.627,0.688-1.408,1.063-2.194,1.063
	c-1.315,0-2.101-0.66-2.101-1.81c0-2.545,2.897-1.671,4.295-2.646c0.034-0.227,0.047-0.318,0.047-0.455
	c0-1.1-0.644-1.801-1.67-1.801c-0.806,0-1.512,0.394-1.863,1.05h-0.149V47.917z M94.969,50.797c-1.721,0.381-2.053,0.633-2.053,1.58
	c0,0.842,0.527,1.399,1.337,1.399c0.659,0,1.354-0.409,1.739-1.023c0-0.739,0.047-1.453,0.047-2.191
	C95.676,50.621,95.335,50.711,94.969,50.797"/>
<path fill="#231F20" d="M101.187,47.288c0.302,0,0.437-0.011,0.695-0.045c-0.082,0.431-0.082,0.875-0.082,1.294
	c0.541-0.96,1.271-1.38,2.318-1.38c1.06,0,1.826,0.517,2.113,1.452c0.497-0.958,1.31-1.445,2.459-1.445
	c1.354,0,2.178,0.799,2.178,2.119c0,1.072-0.055,2.136-0.055,3.199c0,0.859,0,1.277,0.024,1.766
	c-0.248-0.057-0.361-0.068-0.631-0.068s-0.373,0.012-0.642,0.068c0.074-0.596,0.136-2.033,0.146-3.117v-1.139
	c0-1.499-0.477-2.148-1.589-2.148c-1.004,0-1.636,0.633-1.737,1.739c-0.067,0.607-0.095,1.341-0.095,2.501
	c0,0.907,0.016,1.464,0.077,2.164c-0.251-0.057-0.329-0.068-0.647-0.068c-0.248,0-0.357,0.012-0.629,0.068
	c0.133-1.072,0.133-2.203,0.133-3.279c0-2.211-0.068-2.555-0.724-2.896c-0.246-0.143-0.533-0.193-0.848-0.193
	c-1.685,0-1.818,1.498-1.832,2.801l-0.03,1.188c0.01,0.747-0.016,1.501,0.044,2.242c0,0.016,0,0.054,0.011,0.139
	c-0.236-0.057-0.314-0.068-0.602-0.068c-0.327,0-0.391,0.012-0.628,0.068c0.107-1.148,0.148-2.306,0.148-3.46
	c0-1.124-0.017-2.242-0.041-3.365l-0.009-0.18C100.916,47.288,100.974,47.288,101.187,47.288"/>
<path fill="#231F20" d="M114.096,54.269c0.058-0.641,0.075-0.887,0.094-1.836c0.046-1.227,0.046-2.442,0.046-3.656l-0.021-1.883
	v-1.809c0-0.935-0.016-1.203-0.062-1.899c0.271,0.057,0.377,0.057,0.64,0.057c0.189,0,0.325,0,0.639-0.057
	c-0.07,0.528-0.096,0.635-0.106,1.915l-0.032,1.555l-0.005,1.82v0.193c0.628-0.943,1.325-1.506,2.52-1.506
	c1.863,0,3.058,1.326,3.058,3.379c0,2.283-1.436,3.909-3.438,3.909c-0.814,0-1.371-0.303-2.038-1.057
	c-0.362,0.257-0.727,0.558-1.006,0.874H114.096z M117.352,53.986c1.323,0,2.207-1.393,2.207-3.47c0-1.603-0.854-2.757-2.059-2.757
	c-1.425,0.002-2.252,1.154-2.252,3.147C115.248,52.288,115.616,53.987,117.352,53.986"/>
<path fill="#231F20" d="M126.973,47.141c0.178,0,0.257,0.017,0.438,0.103c-0.08,0.252-0.119,0.647-0.119,0.873
	c0,0.078,0,0.131,0.017,0.265l-0.104,0.08c-0.237-0.183-0.442-0.259-0.724-0.259c-1.008,0-1.518,0.785-1.518,2.373l-0.011,1.322
	c0,0.784,0.056,1.564,0.056,2.35c-0.225-0.058-0.326-0.068-0.511-0.068c-0.178,0-0.34,0.011-0.687,0.068v-0.161l0.06-1.623
	c0.015-0.354,0.015-0.927,0.015-1.722c0-0.824,0-1.418-0.015-1.789l-0.06-1.549v-0.16c0.193,0.032,0.392,0.043,0.581,0.043
	c0.354,0,0.392,0,0.616-0.043c0,0.406-0.056,0.797-0.056,1.205c0,0.088,0,0.097,0.011,0.237
	C125.545,48.024,125.949,47.141,126.973,47.141"/>
<path fill="#231F20" d="M130.213,47.917c0.725-0.477,1.491-0.828,2.377-0.828c1.547,0,2.432,0.862,2.432,2.329
	c0,0.825-0.078,1.655-0.078,2.479c0,1.662,0.078,1.861,0.612,1.861c0.099,0,0.14-0.016,0.293-0.048v0.304
	c-0.391,0.148-0.664,0.233-0.945,0.233c-0.647,0-0.972-0.296-1.051-0.909c-0.633,0.689-1.413,1.064-2.191,1.064
	c-1.326,0-2.103-0.66-2.103-1.81c0-2.545,2.894-1.672,4.294-2.646c0.026-0.227,0.038-0.318,0.038-0.455
	c0-1.1-0.642-1.801-1.658-1.801c-0.817,0-1.52,0.394-1.863,1.048h-0.156V47.917z M132.834,50.797
	c-1.734,0.381-2.061,0.633-2.061,1.58c0,0.842,0.529,1.399,1.339,1.399c0.655,0,1.347-0.409,1.74-1.023
	c0-0.739,0.038-1.453,0.038-2.191C133.536,50.617,133.188,50.709,132.834,50.797"/>
<path fill="#231F20" d="M139.193,47.288c0.229,0,0.316,0,0.523-0.045c0,0.371-0.043,0.753-0.043,1.126c0,0.045,0,0.107,0.018,0.199
	c0.643-1.012,1.323-1.411,2.387-1.411c1.541,0,2.413,0.897,2.413,2.493c0,0.834-0.055,1.676-0.055,2.515
	c0,0.698,0.013,1.383,0.013,2.083c-0.281-0.057-0.393-0.068-0.634-0.068c-0.183,0-0.317,0.012-0.627,0.068
	c0.075-0.805,0.147-2.504,0.147-3.792c0-1.198-0.147-2.563-1.712-2.563c-1.737,0-1.924,1.379-1.933,2.787
	c0,0.677-0.018,1.336-0.018,2.014c0,0.515,0.043,1.038,0.043,1.555c-0.254-0.057-0.363-0.068-0.598-0.068
	c-0.24,0-0.354,0.012-0.641,0.068c0.07-0.689,0.081-0.939,0.101-1.84c0.025-0.756,0.05-1.799,0.05-2.778
	c0-0.794,0-1.589-0.069-2.387C138.84,47.277,138.973,47.288,139.193,47.288"/>
<path fill="#231F20" d="M151.187,47.089c2.089,0,3.438,1.428,3.438,3.628c0,2.145-1.548,3.657-3.708,3.657
	c-2.101,0-3.483-1.457-3.483-3.682C147.434,48.537,148.939,47.089,151.187,47.089 M148.724,50.875c0,1.789,0.91,3.035,2.221,3.035
	c1.438,0,2.371-1.303,2.371-3.324c0-1.81-0.847-3.03-2.129-3.03c-1.484,0-2.387,1.146-2.447,3.138
	C148.739,50.753,148.724,50.814,148.724,50.875"/>
<path fill="#231F20" d="M49.223,66.732l-0.442,0.34c-0.245-0.319-0.534-0.563-0.874-0.725c-0.339-0.166-0.715-0.244-1.124-0.244
	c-0.447,0-0.86,0.105-1.243,0.32c-0.377,0.213-0.672,0.508-0.877,0.866c-0.211,0.36-0.314,0.771-0.314,1.216
	c0,0.686,0.237,1.251,0.7,1.707c0.466,0.463,1.056,0.688,1.77,0.688c0.784,0,1.438-0.305,1.963-0.922l0.442,0.336
	c-0.282,0.356-0.625,0.631-1.044,0.83c-0.413,0.189-0.881,0.291-1.392,0.291c-0.982,0-1.748-0.328-2.318-0.973
	c-0.475-0.557-0.707-1.217-0.707-1.996c0-0.82,0.284-1.506,0.855-2.068c0.573-0.563,1.297-0.84,2.165-0.84
	c0.516,0,0.988,0.108,1.402,0.311C48.607,66.068,48.951,66.361,49.223,66.732"/>
<rect x="50.354" y="65.701" fill="#231F20" width="0.56" height="5.594"/>
<path fill="#231F20" d="M52.299,65.701h1.115c0.625,0,1.042,0.018,1.266,0.076c0.333,0.074,0.604,0.233,0.81,0.489
	c0.204,0.248,0.312,0.558,0.312,0.921c0,0.305-0.073,0.581-0.216,0.807c-0.142,0.23-0.343,0.403-0.612,0.527
	c-0.266,0.116-0.629,0.174-1.104,0.174l2.014,2.6h-0.691l-2.018-2.6H52.86v2.6h-0.562V65.701z M52.86,66.25v1.899h0.965
	c0.372,0,0.648-0.032,0.826-0.102c0.176-0.071,0.313-0.179,0.416-0.337c0.103-0.155,0.151-0.332,0.151-0.523
	c0-0.189-0.052-0.359-0.157-0.511c-0.1-0.153-0.234-0.265-0.393-0.322c-0.166-0.069-0.439-0.104-0.825-0.104H52.86z"/>
<path fill="#231F20" d="M57.099,65.708l0.565-0.008v3.373c0,0.397,0.008,0.646,0.022,0.748c0.032,0.221,0.091,0.405,0.191,0.551
	c0.107,0.149,0.261,0.276,0.474,0.375c0.204,0.098,0.422,0.151,0.635,0.151c0.181,0,0.365-0.04,0.528-0.123
	c0.173-0.073,0.317-0.18,0.431-0.325c0.12-0.137,0.202-0.307,0.25-0.506c0.034-0.142,0.06-0.435,0.06-0.871v-3.373l0.562,0.008
	v3.375c0,0.502-0.047,0.903-0.149,1.209c-0.096,0.31-0.289,0.582-0.587,0.808c-0.289,0.228-0.644,0.345-1.064,0.345
	c-0.455,0-0.839-0.117-1.166-0.328c-0.318-0.218-0.533-0.503-0.645-0.859c-0.073-0.215-0.106-0.608-0.106-1.174V65.708z"/>
<path fill="#231F20" d="M67.672,66.629l-0.427,0.41c-0.318-0.308-0.663-0.541-1.039-0.7c-0.363-0.159-0.733-0.236-1.088-0.236
	c-0.439,0-0.858,0.105-1.257,0.32c-0.398,0.211-0.704,0.51-0.928,0.881c-0.218,0.365-0.324,0.756-0.324,1.165
	c0,0.425,0.116,0.822,0.338,1.199c0.229,0.387,0.537,0.677,0.936,0.901c0.406,0.212,0.841,0.32,1.317,0.32
	c0.577,0,1.065-0.158,1.466-0.482c0.398-0.322,0.637-0.739,0.709-1.249h-1.783v-0.558h2.413c-0.003,0.869-0.269,1.559-0.771,2.069
	c-0.514,0.51-1.195,0.765-2.05,0.765c-1.038,0-1.862-0.35-2.466-1.058c-0.464-0.54-0.703-1.166-0.703-1.883
	c0-0.531,0.142-1.023,0.407-1.482c0.269-0.452,0.633-0.814,1.101-1.069c0.468-0.254,0.992-0.385,1.581-0.385
	c0.473,0,0.921,0.088,1.339,0.26C66.861,65.982,67.275,66.254,67.672,66.629"/>
<rect x="69.071" y="65.701" fill="#231F20" width="0.568" height="5.594"/>
<path fill="#231F20" d="M73.287,65.701l2.619,5.594h-0.607l-0.876-1.829h-2.446l-0.865,1.829h-0.613l2.649-5.594H73.287z
	 M73.212,66.857l-0.974,2.058h1.933L73.212,66.857z"/>
<path fill="#231F20" d="M81.743,65.558c0.847,0,1.558,0.276,2.126,0.846c0.572,0.563,0.86,1.266,0.86,2.091
	c0,0.817-0.282,1.509-0.856,2.087c-0.572,0.573-1.264,0.854-2.086,0.854c-0.824,0-1.524-0.28-2.098-0.85
	c-0.575-0.568-0.856-1.26-0.856-2.064c0-0.539,0.125-1.035,0.385-1.49c0.261-0.465,0.612-0.822,1.069-1.081
	C80.733,65.691,81.219,65.558,81.743,65.558 M81.765,66.103c-0.413,0-0.799,0.105-1.173,0.32c-0.366,0.211-0.657,0.51-0.863,0.866
	c-0.207,0.375-0.31,0.78-0.31,1.231c0,0.664,0.229,1.224,0.686,1.683c0.462,0.461,1.015,0.687,1.66,0.687
	c0.437,0,0.833-0.103,1.203-0.315c0.369-0.208,0.662-0.498,0.862-0.864c0.207-0.361,0.31-0.771,0.31-1.216
	c0-0.447-0.103-0.845-0.31-1.205c-0.2-0.358-0.494-0.655-0.87-0.866C82.587,66.208,82.19,66.103,81.765,66.103"/>
<path fill="#231F20" d="M91.15,66.732l-0.443,0.34c-0.244-0.319-0.539-0.563-0.875-0.725c-0.337-0.166-0.71-0.244-1.123-0.244
	c-0.448,0-0.854,0.105-1.237,0.32c-0.376,0.211-0.679,0.508-0.889,0.866c-0.204,0.36-0.31,0.771-0.31,1.216
	c0,0.686,0.24,1.251,0.706,1.707c0.461,0.463,1.054,0.688,1.766,0.688c0.786,0,1.436-0.305,1.962-0.922l0.443,0.336
	c-0.282,0.356-0.626,0.631-1.036,0.83c-0.428,0.189-0.891,0.291-1.405,0.291c-0.979,0-1.742-0.328-2.307-0.973
	c-0.48-0.557-0.714-1.217-0.714-1.998c0-0.818,0.287-1.504,0.858-2.066c0.574-0.563,1.291-0.84,2.155-0.84
	c0.521,0,0.993,0.108,1.415,0.311C90.535,66.068,90.879,66.361,91.15,66.732"/>
<path fill="#231F20" d="M92.373,65.708l0.564-0.008v3.373c0,0.397,0.009,0.646,0.023,0.748c0.036,0.221,0.091,0.405,0.189,0.551
	c0.106,0.149,0.262,0.276,0.472,0.375c0.215,0.098,0.422,0.151,0.631,0.151c0.197,0,0.368-0.04,0.538-0.123
	c0.172-0.073,0.307-0.18,0.431-0.325c0.113-0.137,0.197-0.307,0.246-0.506c0.039-0.142,0.062-0.435,0.062-0.871v-3.373l0.56,0.008
	v3.375c0,0.502-0.046,0.903-0.146,1.209c-0.102,0.31-0.291,0.582-0.587,0.808c-0.295,0.228-0.649,0.345-1.065,0.345
	c-0.453,0-0.839-0.117-1.161-0.328c-0.325-0.218-0.545-0.503-0.65-0.859c-0.068-0.215-0.105-0.608-0.105-1.174V65.708z"/>
<polygon fill="#231F20" points="97.541,65.701 98.103,65.701 98.103,70.744 100.264,70.744 100.264,71.294 97.541,71.294 "/>
<path fill="#231F20" d="M103.521,65.701l2.613,5.594h-0.606l-0.867-1.829h-2.454l-0.866,1.829h-0.611l2.652-5.594H103.521z
	 M103.447,66.857l-0.979,2.058l1.942-0.001L103.447,66.857z"/>
<path fill="#231F20" d="M107.102,65.701h1.115c0.619,0,1.045,0.018,1.266,0.076c0.332,0.074,0.603,0.233,0.81,0.489
	c0.202,0.248,0.313,0.558,0.313,0.921c0,0.305-0.067,0.579-0.212,0.807c-0.148,0.23-0.349,0.403-0.615,0.527
	c-0.268,0.116-0.633,0.174-1.101,0.174l2.012,2.6h-0.698l-2.013-2.6h-0.312v2.6h-0.565V65.701z M107.667,66.25v1.899h0.96
	c0.376,0,0.648-0.032,0.826-0.102c0.178-0.071,0.314-0.179,0.418-0.337c0.095-0.155,0.147-0.332,0.147-0.523
	c0-0.189-0.053-0.359-0.154-0.511c-0.1-0.153-0.23-0.265-0.394-0.322c-0.166-0.069-0.439-0.104-0.822-0.104H107.667z"/>
<line fill="none" stroke="#0A7EB0" stroke-width="0.523" x1="0" y1="59.704" x2="155.206" y2="59.704"/>
</svg>
